<?xml version="1.0" standalone="no"?>
<!DOCTYPE svg PUBLIC "-//W3C//DTD SVG 20010904//EN"
 "http://www.w3.org/TR/2001/REC-SVG-20010904/DTD/svg10.dtd">
<svg version="1.0" xmlns="http://www.w3.org/2000/svg"
 width="16.000000pt" height="16.000000pt" viewBox="0 0 16.000000 16.000000"
 preserveAspectRatio="xMidYMid meet">
<metadata>
Created by potrace 1.11, written by Peter Selinger 2001-2013
</metadata>
<g transform="translate(0.000000,16.000000) scale(0.006154,-0.006154)"
fill="#000000" stroke="none">
<path d="M1308 2505 c-4 -4 -52 -8 -107 -9 -55 -2 -106 -7 -113 -12 -7 -6 -27
-10 -45 -10 -17 1 -29 -2 -26 -6 4 -7 -28 -12 -64 -11 -7 1 -13 -3 -13 -9 0
-5 -4 -6 -10 -3 -5 3 -10 1 -10 -4 0 -6 -3 -10 -7 -10 -23 4 -43 -2 -38 -10 3
-6 -6 -8 -20 -5 -14 2 -25 0 -25 -6 0 -5 -9 -10 -20 -10 -11 0 -20 -5 -20 -11
0 -5 -4 -7 -10 -4 -5 3 -10 1 -10 -4 0 -6 -9 -11 -19 -11 -10 0 -21 -7 -25
-15 -3 -8 -9 -14 -13 -13 -14 4 -53 -13 -53 -23 0 -5 -7 -9 -15 -9 -9 0 -18
-7 -21 -15 -4 -8 -10 -12 -15 -9 -5 3 -9 0 -9 -5 0 -6 -6 -11 -13 -11 -7 0
-18 -9 -25 -21 -8 -12 -19 -18 -28 -15 -8 3 -14 1 -14 -5 0 -11 -45 -59 -56
-59 -13 0 -73 -73 -68 -82 3 -5 0 -7 -8 -6 -7 2 -12 -3 -10 -10 1 -8 -1 -11
-6 -8 -5 3 -16 -4 -25 -15 -12 -13 -13 -19 -4 -20 6 0 2 -4 -11 -10 -13 -5
-21 -13 -18 -18 3 -5 -1 -11 -9 -15 -8 -3 -15 -12 -15 -19 0 -8 -9 -22 -20
-32 -11 -10 -17 -21 -15 -25 3 -4 -2 -13 -10 -20 -8 -7 -15 -19 -15 -26 0 -8
-4 -14 -9 -14 -5 0 -11 -14 -15 -31 -3 -17 -10 -28 -15 -25 -5 4 -8 -5 -7 -19
2 -13 0 -22 -4 -20 -8 5 -23 -33 -21 -52 1 -7 -2 -13 -8 -13 -5 0 -8 -12 -6
-26 1 -14 -3 -28 -10 -30 -7 -3 -12 -13 -10 -22 1 -9 0 -21 -4 -27 -6 -11 -10
-26 -17 -75 -6 -47 -12 -75 -15 -75 -1 0 -9 -116 -9 -140 2 -97 9 -168 18
-177 7 -7 8 -17 2 -28 -6 -12 -5 -23 5 -36 9 -13 10 -23 3 -31 -8 -10 -6 -13
8 -13 16 0 17 -2 4 -10 -8 -5 -10 -10 -4 -10 6 0 11 -6 11 -12 0 -7 4 -22 9
-32 5 -14 4 -17 -5 -11 -8 4 -6 -3 4 -18 9 -15 14 -30 11 -36 -3 -5 1 -12 10
-15 8 -3 13 -10 10 -15 -4 -5 0 -15 7 -23 8 -7 13 -23 12 -36 -1 -13 4 -22 12
-22 8 0 11 -4 8 -10 -3 -5 -1 -10 4 -10 6 0 10 -3 9 -7 -3 -13 13 -53 21 -53
4 0 13 -16 21 -35 8 -19 17 -35 22 -35 4 0 8 -7 8 -16 0 -9 5 -12 11 -8 7 4
10 1 7 -6 -2 -7 4 -23 15 -34 10 -12 39 -43 63 -70 24 -27 44 -53 44 -58 0 -5
5 -6 10 -3 6 3 10 -2 10 -11 0 -10 3 -15 6 -11 4 3 23 -11 44 -33 21 -22 40
-36 44 -33 3 4 6 1 6 -6 0 -7 3 -10 8 -8 10 7 32 -19 24 -29 -4 -4 1 -4 11 -1
11 4 17 1 17 -9 0 -10 6 -14 15 -10 8 3 18 -1 22 -8 9 -16 103 -70 103 -59 0
4 6 -2 14 -13 8 -10 18 -16 22 -12 4 4 20 -2 35 -13 16 -11 33 -17 39 -14 5 3
10 1 10 -6 0 -7 2 -10 6 -7 3 3 27 -3 53 -13 27 -10 51 -15 55 -12 3 4 6 1 6
-6 0 -7 4 -10 9 -7 5 4 21 2 34 -3 18 -7 27 -7 31 2 3 7 5 6 5 -4 1 -11 10
-15 36 -14 20 1 38 -2 41 -7 3 -5 11 -4 19 2 10 8 15 8 20 0 5 -8 11 -7 23 2
13 11 15 11 10 -2 -4 -11 0 -16 13 -16 11 0 19 3 19 6 0 4 23 4 50 0 29 -4 50
-2 50 3 0 5 6 5 13 -1 8 -7 18 -7 27 -2 8 5 18 6 22 4 4 -3 8 1 8 8 0 9 3 9
10 -2 5 -8 10 -10 10 -3 0 6 8 10 18 8 9 -1 23 3 31 9 11 8 13 8 7 -1 -4 -7
-3 -13 3 -13 5 0 13 5 16 10 3 6 11 10 16 10 6 0 7 -6 3 -12 -5 -8 -1 -7 10 2
18 14 30 18 74 22 12 1 22 6 22 11 0 4 6 7 13 6 25 -3 38 1 32 11 -3 5 0 7 9
4 8 -3 21 -2 28 2 7 5 19 9 27 11 8 1 18 8 22 15 7 10 9 10 9 -2 1 -12 3 -11
11 3 6 9 14 15 18 12 5 -2 14 2 21 10 7 8 16 12 21 9 5 -3 9 0 9 6 0 6 4 9 9
5 6 -3 14 2 19 11 5 9 13 16 18 16 18 1 54 21 54 30 0 5 5 6 10 3 6 -3 10 -1
10 4 0 6 7 11 16 11 8 0 12 5 9 10 -3 6 0 10 7 10 7 0 30 16 52 35 21 19 42
35 48 35 5 0 6 4 3 10 -3 5 1 10 10 10 10 0 13 5 9 12 -5 8 -2 9 10 5 10 -4
15 -3 11 3 -3 5 3 15 15 22 11 7 20 16 20 21 0 4 14 21 30 37 17 16 30 34 30
40 0 6 5 8 10 5 6 -3 10 1 10 10 0 8 7 18 15 21 8 4 13 10 10 14 -2 4 6 19 18
32 13 14 22 33 21 42 -1 9 1 14 6 11 10 -6 40 56 33 69 -3 5 -2 7 3 3 5 -3 14
6 21 19 8 18 8 22 0 17 -7 -3 -1 6 13 22 14 16 18 25 10 21 -13 -6 -13 -5 0 6
9 7 14 21 12 30 -2 10 1 18 7 18 6 0 10 3 10 8 -1 4 0 9 1 12 3 10 11 45 12
58 1 6 5 12 10 12 4 0 7 3 6 8 -1 4 2 27 7 52 4 25 9 59 11 75 1 17 3 34 3 38
1 5 6 5 12 1 8 -4 8 0 0 15 -7 11 -8 21 -4 21 12 0 10 144 -2 152 -7 5 -7 8 1
8 12 0 12 36 -1 47 -4 5 -5 2 0 -6 5 -10 4 -12 -4 -7 -6 4 -8 13 -4 19 11 17
13 57 3 57 -5 0 -8 16 -6 35 1 20 -2 35 -8 35 -6 0 -4 5 4 10 13 8 8 14 -11
12 -3 -1 -5 15 -4 34 0 19 -3 34 -8 34 -4 0 -5 5 -2 10 3 6 2 10 -2 10 -5 0
-10 12 -11 27 -1 15 -8 30 -15 35 -6 4 -8 8 -3 8 4 0 1 12 -9 26 -9 15 -13 24
-7 20 6 -3 5 4 -1 19 -7 14 -15 25 -19 25 -5 0 -8 9 -8 20 0 11 -4 20 -10 20
-5 0 -10 9 -10 20 0 11 -9 29 -20 40 -12 12 -18 25 -15 29 2 5 -2 11 -10 15
-8 3 -15 15 -15 26 0 11 -3 19 -7 17 -5 -1 -10 3 -12 8 -2 6 -11 15 -20 22 -9
7 -12 13 -7 13 4 0 -6 14 -24 30 -18 17 -29 30 -25 30 3 0 -19 25 -50 55 -32
30 -61 55 -66 55 -5 0 -9 7 -9 16 0 8 -4 13 -8 10 -5 -3 -15 4 -22 15 -8 10
-18 19 -22 19 -7 0 -35 21 -63 47 -7 7 -15 10 -17 7 -3 -2 -11 2 -18 11 -7 8
-19 15 -27 15 -7 0 -16 6 -19 14 -3 8 -12 12 -20 9 -8 -3 -14 -1 -14 4 0 4 -9
14 -21 21 -16 11 -19 11 -13 1 4 -7 -7 -3 -24 10 -18 12 -44 24 -60 26 -15 1
-26 7 -25 12 1 5 -8 9 -20 8 -12 -1 -24 2 -27 6 -5 6 -37 14 -73 18 -5 1 -5 7
-1 14 5 8 2 8 -9 -2 -11 -9 -17 -10 -17 -2 0 6 -5 11 -11 11 -5 0 -7 -6 -3
-12 5 -10 4 -10 -6 -1 -7 6 -19 9 -26 6 -8 -3 -14 0 -14 6 0 6 -10 11 -22 11
-70 1 -118 6 -118 12 0 4 -11 3 -24 -2 -16 -6 -26 -5 -28 1 -2 6 -6 7 -10 4z"/>
</g>
</svg>
